<svg width="53" height="53" viewBox="0 0 53 53" fill="none" xmlns="http://www.w3.org/2000/svg">
<path d="M13.4944 6.96078C14.2066 6.73841 14.9454 6.625 15.6892 6.625C19.2646 6.625 21.9135 9.77332 21.9135 13.3337L21.9135 21.3201C21.9135 24.8805 19.2646 28.0288 15.6892 28.0288C14.9454 28.0288 14.2066 27.9154 13.4944 27.6931L12.9501 27.5231C12.7642 27.4651 12.5813 27.4007 12.4016 27.3302C15.2377 33.0899 19.9101 37.7623 25.6698 40.5984C25.5993 40.4187 25.5349 40.2358 25.4769 40.0499L25.3069 39.5056C25.0846 38.7934 24.9712 38.0546 24.9712 37.3108C24.9712 33.7354 28.1195 31.0865 31.6799 31.0865H39.6663C43.2267 31.0865 46.375 33.7354 46.375 37.3108C46.375 38.0546 46.2616 38.7934 46.0392 39.5056L45.8692 40.0499C44.8791 43.2209 42.0469 45.5173 38.6591 46.1143C36.6866 46.4619 34.6596 46.4619 32.6871 46.1143C32.6094 46.1006 32.5321 46.0861 32.4551 46.0706C19.528 43.5835 9.41643 33.4719 6.92935 20.5448C6.91391 20.4678 6.89935 20.3905 6.88568 20.3129C6.5381 18.3404 6.53811 16.3134 6.88569 14.3409C7.48266 10.9531 9.77909 8.12089 12.9501 7.13075L13.4944 6.96078Z" fill="white"/>
<path d="M28.9574 10.1387C32.8745 9.02265 37.14 9.95618 40.0919 12.9081C43.0439 15.86 43.9774 20.1255 42.8613 24.0427C42.6299 24.8547 43.1006 25.7005 43.9127 25.9319C44.7247 26.1633 45.5706 25.6926 45.802 24.8805C47.1981 19.9805 46.0507 14.5426 42.254 10.746C38.4574 6.94938 33.0196 5.80193 28.1195 7.19809C27.3075 7.42946 26.8367 8.27531 27.0681 9.08735C27.2995 9.89939 28.1453 10.3701 28.9574 10.1387Z" fill="white"/>
<path d="M32.7854 15.6954C33.817 15.49 35.1236 15.8364 36.1436 16.8564C37.1636 17.8764 37.5101 19.1831 37.3046 20.2147C37.1397 21.0427 37.6773 21.8478 38.5054 22.0127C39.3334 22.1776 40.1385 21.64 40.3034 20.8119C40.7252 18.6943 39.9851 16.3737 38.3057 14.6943C36.6263 13.0149 34.3057 12.2749 32.1881 12.6966C31.36 12.8616 30.8224 13.6666 30.9873 14.4947C31.1523 15.3228 31.9573 15.8604 32.7854 15.6954Z" fill="white"/>
</svg>
