<svg width="29" height="29" viewBox="0 0 29 29" fill="none" xmlns="http://www.w3.org/2000/svg">
<path d="M0.152344 28.9216L2.2082 21.2774C0.550203 18.2997 0.0234414 14.8248 0.724575 11.4906C1.42571 8.15636 3.30771 5.18638 6.02522 3.12564C8.74274 1.0649 12.1135 0.0516427 15.5189 0.271791C18.9244 0.49194 22.1361 1.93073 24.5647 4.32415C26.9933 6.71756 28.4759 9.90506 28.7405 13.3017C29.005 16.6984 28.0338 20.0764 26.005 22.8158C23.9761 25.5553 21.0258 27.4724 17.6954 28.2155C14.365 28.9585 10.8779 28.4777 7.87394 26.8611L0.152344 28.9216ZM8.24626 24.0006L8.7238 24.2834C10.8996 25.5709 13.4409 26.1037 15.9517 25.7988C18.4625 25.4938 20.8017 24.3682 22.6049 22.5974C24.408 20.8267 25.5737 18.5101 25.9204 16.0088C26.2671 13.5076 25.7753 10.962 24.5215 8.76897C23.2678 6.57589 21.3227 4.85845 18.9892 3.88428C16.6557 2.91012 14.0649 2.73395 11.6207 3.38322C9.17639 4.0325 7.01592 5.47076 5.47591 7.47386C3.9359 9.47696 3.10287 11.9324 3.10662 14.4575C3.10458 16.5512 3.68458 18.6044 4.78207 20.3886L5.08154 20.8815L3.9322 25.148L8.24626 24.0006Z" fill="white"/>
</svg>
