<svg width="28" height="24" viewBox="0 0 28 24" fill="none" xmlns="http://www.w3.org/2000/svg">
<path d="M2.60561 10.6592C2.60561 10.6592 14.273 5.74512 18.3194 4.01475C19.8706 3.32265 25.131 1.10776 25.131 1.10776C25.131 1.10776 27.559 0.138835 27.3566 2.49205C27.2891 3.46107 26.7496 6.85247 26.2101 10.5208C25.4008 15.7118 24.524 21.3873 24.524 21.3873C24.524 21.3873 24.3892 22.9792 23.2427 23.2561C22.0962 23.5329 20.2078 22.2871 19.8706 22.0102C19.6008 21.8026 14.8125 18.688 13.059 17.1653C12.5869 16.75 12.0474 15.9195 13.1264 14.9505C15.5543 12.6664 18.4543 9.82871 20.2078 8.02917C21.0171 7.19856 21.8264 5.26061 18.4543 7.61382C13.666 11.0053 8.94511 14.1891 8.94511 14.1891C8.94511 14.1891 7.86601 14.8812 5.8428 14.2583C3.81949 13.6355 1.45904 12.8048 1.45904 12.8048C1.45904 12.8048 -0.159463 11.7667 2.60561 10.6592Z" fill="white"/>
</svg>
