<svg width="29" height="30" viewBox="0 0 29 30" fill="none" xmlns="http://www.w3.org/2000/svg">
<path d="M9.88496 14.7264C9.88496 12.0867 12.0237 9.94614 14.6627 9.94614C17.3017 9.94614 19.4416 12.0867 19.4416 14.7264C19.4416 17.3662 17.3017 19.5067 14.6627 19.5067C12.0237 19.5067 9.88496 17.3662 9.88496 14.7264ZM7.30158 14.7264C7.30158 18.7932 10.5972 22.0897 14.6627 22.0897C18.7283 22.0897 22.0239 18.7932 22.0239 14.7264C22.0239 10.6597 18.7283 7.36316 14.6627 7.36316C10.5972 7.36316 7.30158 10.6597 7.30158 14.7264ZM20.595 7.0712C20.5949 7.41154 20.6956 7.74427 20.8845 8.02733C21.0735 8.31038 21.342 8.53104 21.6563 8.66141C21.9706 8.79177 22.3165 8.82599 22.6502 8.75973C22.9839 8.69346 23.2905 8.5297 23.5312 8.28914C23.7719 8.04859 23.9358 7.74204 24.0024 7.40827C24.0689 7.0745 24.0349 6.7285 23.9049 6.41402C23.7748 6.09954 23.5544 5.8307 23.2716 5.64151C22.9888 5.45232 22.6562 5.35126 22.316 5.35113H22.3153C21.8592 5.35134 21.4219 5.53261 21.0993 5.85512C20.7768 6.17763 20.5954 6.61501 20.595 7.0712V7.0712ZM8.87115 26.3986C7.47349 26.3349 6.71382 26.1021 6.20898 25.9053C5.53968 25.6447 5.06213 25.3343 4.56004 24.8327C4.05795 24.3312 3.74716 23.8539 3.48774 23.1844C3.29094 22.6797 3.05813 21.9196 2.9946 20.5215C2.9251 19.01 2.91122 18.5559 2.91122 14.7265C2.91122 10.8972 2.92624 10.4444 2.9946 8.93158C3.05825 7.53352 3.29278 6.77489 3.48774 6.26864C3.7483 5.59915 4.05864 5.12146 4.56004 4.61923C5.06144 4.11699 5.53853 3.80611 6.20898 3.54662C6.71359 3.34976 7.47349 3.11688 8.87115 3.05333C10.3822 2.98381 10.8362 2.96993 14.6627 2.96993C18.4893 2.96993 18.9437 2.98496 20.456 3.05333C21.8537 3.117 22.6121 3.3516 23.1182 3.54662C23.7875 3.80611 24.265 4.11768 24.7671 4.61923C25.2692 5.12077 25.5789 5.59915 25.8394 6.26864C26.0362 6.7734 26.269 7.53352 26.3326 8.93158C26.4021 10.4444 26.4159 10.8972 26.4159 14.7265C26.4159 18.5559 26.4021 19.0087 26.3326 20.5215C26.2689 21.9196 26.035 22.6795 25.8394 23.1844C25.5789 23.8539 25.2685 24.3316 24.7671 24.8327C24.2657 25.3338 23.7875 25.6447 23.1182 25.9053C22.6136 26.1022 21.8537 26.3351 20.456 26.3986C18.9449 26.4681 18.491 26.482 14.6627 26.482C10.8344 26.482 10.3818 26.4681 8.87115 26.3986V26.3986ZM8.75245 0.47356C7.22634 0.543079 6.18352 0.785133 5.27281 1.13961C4.32964 1.50567 3.53121 1.99678 2.73335 2.79361C1.93548 3.59044 1.44578 4.39037 1.07982 5.3338C0.725448 6.24535 0.483464 7.28791 0.413965 8.81445C0.343319 10.3434 0.327148 10.8322 0.327148 14.7264C0.327148 18.6206 0.343319 19.1094 0.413965 20.6384C0.483464 22.1651 0.725448 23.2075 1.07982 24.1191C1.44578 25.0619 1.9356 25.8628 2.73335 26.6592C3.53109 27.4557 4.32964 27.9462 5.27281 28.3132C6.18524 28.6677 7.22634 28.9098 8.75245 28.9793C10.2818 29.0488 10.7696 29.0661 14.6627 29.0661C18.5558 29.0661 19.0445 29.05 20.573 28.9793C22.0992 28.9098 23.1414 28.6677 24.0526 28.3132C24.9952 27.9462 25.7942 27.4561 26.5921 26.6592C27.39 25.8624 27.8786 25.0619 28.2456 24.1191C28.6 23.2075 28.8431 22.165 28.9115 20.6384C28.981 19.1083 28.9971 18.6206 28.9971 14.7264C28.9971 10.8322 28.981 10.3434 28.9115 8.81445C28.842 7.28779 28.6 6.24478 28.2456 5.3338C27.8786 4.39094 27.3887 3.5917 26.5921 2.79361C25.7955 1.99552 24.9952 1.50567 24.0538 1.13961C23.1414 0.785133 22.0991 0.541932 20.5741 0.47356C19.0456 0.404041 18.5569 0.386719 14.6639 0.386719C10.7708 0.386719 10.2818 0.402894 8.75245 0.47356Z" fill="white"/>
</svg>
