<svg width="108" height="108" viewBox="0 0 108 108" fill="none" xmlns="http://www.w3.org/2000/svg">
<g filter="url(#filter0_d_746_4230)">
<rect x="30" y="25" width="48.251" height="48.251" rx="13.6362" fill="#0088FF"/>
</g>
<path d="M43.4238 48.2728C43.4238 48.2728 53.2403 44.1383 56.6448 42.6824C57.9499 42.1001 62.3758 40.2366 62.3758 40.2366C62.3758 40.2366 64.4186 39.4214 64.2484 41.4013C64.1916 42.2166 63.7377 45.07 63.2837 48.1564C62.6028 52.5239 61.8651 57.299 61.8651 57.299C61.8651 57.299 61.7517 58.6384 60.787 58.8714C59.8224 59.1043 58.2336 58.0561 57.9499 57.8231C57.7229 57.6485 53.6942 55.0279 52.2189 53.7468C51.8217 53.3974 51.3677 52.6986 52.2756 51.8833C54.3184 49.9616 56.7583 47.5741 58.2336 46.06C58.9145 45.3612 59.5954 43.7306 56.7583 45.7105C52.7296 48.564 48.7576 51.2428 48.7576 51.2428C48.7576 51.2428 47.8497 51.8251 46.1474 51.301C44.4451 50.7769 42.4591 50.0781 42.4591 50.0781C42.4591 50.0781 41.0973 49.2046 43.4238 48.2728Z" fill="white"/>
<defs>
<filter id="filter0_d_746_4230" x="0.818174" y="0.681812" width="106.615" height="106.614" filterUnits="userSpaceOnUse" color-interpolation-filters="sRGB">
<feFlood flood-opacity="0" result="BackgroundImageFix"/>
<feColorMatrix in="SourceAlpha" type="matrix" values="0 0 0 0 0 0 0 0 0 0 0 0 0 0 0 0 0 0 127 0" result="hardAlpha"/>
<feOffset dy="4.86364"/>
<feGaussianBlur stdDeviation="14.5909"/>
<feComposite in2="hardAlpha" operator="out"/>
<feColorMatrix type="matrix" values="0 0 0 0 0 0 0 0 0 0.533333 0 0 0 0 1 0 0 0 0.45 0"/>
<feBlend mode="normal" in2="BackgroundImageFix" result="effect1_dropShadow_746_4230"/>
<feBlend mode="normal" in="SourceGraphic" in2="effect1_dropShadow_746_4230" result="shape"/>
</filter>
</defs>
</svg>
