<svg width="108" height="108" viewBox="0 0 108 108" fill="none" xmlns="http://www.w3.org/2000/svg">
<g filter="url(#filter0_d_737_4107)">
<rect x="30" y="25" width="48.2168" height="48.2168" rx="13.6362" fill="#21C47F"/>
</g>
<path d="M42.0542 60.2705L43.7839 53.8389C42.3889 51.3335 41.9457 48.4099 42.5357 45.6046C43.1256 42.7993 44.709 40.3005 46.9954 38.5667C49.2819 36.8328 52.1179 35.9803 54.9831 36.1655C57.8483 36.3508 60.5505 37.5613 62.5939 39.575C64.6372 41.5888 65.8846 44.2706 66.1072 47.1285C66.3298 49.9863 65.5127 52.8284 63.8057 55.1333C62.0987 57.4382 59.6164 59.0512 56.8143 59.6764C54.0122 60.3015 51.0783 59.8969 48.5509 58.5368L42.0542 60.2705ZM48.8641 56.1301L49.2659 56.368C51.0966 57.4513 53.2347 57.8996 55.3472 57.643C57.4597 57.3864 59.4279 56.4394 60.945 54.9495C62.462 53.4597 63.4428 51.5106 63.7345 49.4061C64.0262 47.3016 63.6124 45.1599 62.5576 43.3148C61.5027 41.4696 59.8661 40.0246 57.9028 39.205C55.9395 38.3853 53.7597 38.2371 51.7032 38.7834C49.6467 39.3297 47.829 40.5398 46.5333 42.2251C45.2376 43.9104 44.5367 45.9763 44.5398 48.1009C44.5381 49.8625 45.0261 51.59 45.9495 53.0911L46.2015 53.5058L45.2344 57.0955L48.8641 56.1301Z" fill="white"/>
<path fill-rule="evenodd" clip-rule="evenodd" d="M58.6158 49.7533C58.3802 49.5637 58.1044 49.4302 57.8094 49.363C57.5144 49.2959 57.2079 49.2968 56.9133 49.3658C56.4706 49.5494 56.1846 50.2428 55.8986 50.5896C55.8383 50.6727 55.7497 50.731 55.6494 50.7535C55.5491 50.7761 55.444 50.7613 55.3538 50.712C53.7333 50.0783 52.3749 48.9163 51.4994 47.4146C51.4247 47.3209 51.3894 47.2019 51.4008 47.0827C51.4122 46.9635 51.4695 46.8534 51.5607 46.7755C51.8797 46.4603 52.1139 46.0698 52.2417 45.6402C52.27 45.1663 52.1613 44.6943 51.9284 44.2804C51.7484 43.7002 51.4057 43.1836 50.941 42.7915C50.7013 42.6839 50.4355 42.6478 50.1757 42.6876C49.9159 42.7274 49.6732 42.8414 49.4768 43.0159C49.136 43.3095 48.8654 43.6757 48.6851 44.0875C48.5048 44.4993 48.4193 44.9462 48.4349 45.3954C48.436 45.6476 48.468 45.8988 48.5303 46.1433C48.6884 46.7306 48.9316 47.2917 49.2521 47.8089C49.4834 48.2051 49.7357 48.5886 50.008 48.9579C50.893 50.1708 52.0054 51.2006 53.2836 51.9901C53.925 52.3913 54.6105 52.7175 55.3266 52.9623C56.0704 53.2989 56.8917 53.4282 57.7032 53.3362C58.1656 53.2664 58.6037 53.0841 58.9789 52.8055C59.3542 52.5269 59.6551 52.1605 59.8552 51.7385C59.9727 51.4836 60.0084 51.1987 59.9573 50.9227C59.8348 50.3584 59.0788 50.0253 58.6158 49.7533Z" fill="white"/>
<defs>
<filter id="filter0_d_737_4107" x="0.818174" y="0.681812" width="106.58" height="106.582" filterUnits="userSpaceOnUse" color-interpolation-filters="sRGB">
<feFlood flood-opacity="0" result="BackgroundImageFix"/>
<feColorMatrix in="SourceAlpha" type="matrix" values="0 0 0 0 0 0 0 0 0 0 0 0 0 0 0 0 0 0 127 0" result="hardAlpha"/>
<feOffset dy="4.86364"/>
<feGaussianBlur stdDeviation="14.5909"/>
<feComposite in2="hardAlpha" operator="out"/>
<feColorMatrix type="matrix" values="0 0 0 0 0.129412 0 0 0 0 0.768627 0 0 0 0 0.498039 0 0 0 0.45 0"/>
<feBlend mode="normal" in2="BackgroundImageFix" result="effect1_dropShadow_737_4107"/>
<feBlend mode="normal" in="SourceGraphic" in2="effect1_dropShadow_737_4107" result="shape"/>
</filter>
</defs>
</svg>
