<svg width="89" height="88" viewBox="0 0 89 88" fill="none" xmlns="http://www.w3.org/2000/svg">
<g clip-path="url(#clip0_737_4161)">
<path d="M62.4371 53.5163C60.6507 55.1205 57.6611 55.157 54.1246 53.8081C49.458 52.131 43.8798 48.084 38.8486 42.4695C33.8538 36.8549 30.4631 30.8393 29.2964 25.9903C28.385 22.3445 28.786 19.3914 30.5725 17.7872C34.8016 14.032 45.3381 18.9538 54.161 28.7976C62.9839 38.6413 66.6663 49.7247 62.4371 53.48V53.5163Z" stroke="#272657" stroke-width="5.46875" stroke-miterlimit="10" stroke-linecap="round"/>
<path d="M29.4059 19.5391L12.3071 57.8567C9.90082 63.2161 15.005 68.9036 20.6196 67.1536L60.6507 54.5026" stroke="#272657" stroke-width="5.46875" stroke-miterlimit="10" stroke-linecap="round"/>
<path d="M24.958 66.168L26.8903 72.3294C27.9476 75.6836 31.5934 77.5795 34.9476 76.5222L41.109 74.5899C44.4632 73.5326 46.359 69.8867 45.3017 66.5326L43.3694 60.3711" stroke="#272657" stroke-width="5.46875" stroke-miterlimit="10" stroke-linecap="round"/>
<path d="M74.1771 14.5781L70.9688 17.823" stroke="#3A65C8" stroke-width="5.46875" stroke-miterlimit="10" stroke-linecap="round"/>
<path d="M57.6252 11.1875L56.1304 14.4687" stroke="#3A65C8" stroke-width="5.46875" stroke-miterlimit="10" stroke-linecap="round"/>
<path d="M77.3125 30.875L74.25 32.5157" stroke="#3A65C8" stroke-width="5.46875" stroke-miterlimit="10" stroke-linecap="round"/>
</g>
<defs>
<clipPath id="clip0_737_4161">
<rect width="87.5" height="87.5" fill="white" transform="translate(0.75 0.25)"/>
</clipPath>
</defs>
</svg>
