<svg width="83" height="82" viewBox="0 0 83 82" fill="none" xmlns="http://www.w3.org/2000/svg">
<path d="M31.2502 75.1654H51.7502C68.8335 75.1654 75.6668 68.332 75.6668 51.2487V30.7487C75.6668 13.6654 68.8335 6.83203 51.7502 6.83203H31.2502C14.1668 6.83203 7.3335 13.6654 7.3335 30.7487V51.2487C7.3335 68.332 14.1668 75.1654 31.2502 75.1654Z" stroke="#272657" stroke-width="5.125" stroke-linecap="round" stroke-linejoin="round"/>
<path d="M63.2989 52.174V25.8999C63.2989 23.269 61.1805 21.3557 58.5838 21.5607H58.4472C53.8689 21.9366 46.933 24.2941 43.038 26.7199L42.6623 26.9591C42.0473 27.335 40.9879 27.335 40.3387 26.9591L39.7922 26.6174C35.9313 24.1916 28.9955 21.9024 24.4172 21.5265C21.8205 21.3215 19.7021 23.2691 19.7021 25.8658V52.174C19.7021 54.2582 21.4104 56.2399 23.4946 56.4791L24.1096 56.5816C28.8246 57.1966 36.1364 59.6224 40.3048 61.9116L40.4071 61.9458C40.988 62.2874 41.9446 62.2874 42.4913 61.9458C46.6596 59.6224 54.0055 57.2307 58.7546 56.5816L59.4722 56.4791C61.5905 56.2399 63.2989 54.2924 63.2989 52.174Z" stroke="#3A65C8" stroke-width="5.125" stroke-linecap="round" stroke-linejoin="round"/>
<path d="M41.5 27.6797V60.343" stroke="#3A65C8" stroke-width="5.125" stroke-linecap="round" stroke-linejoin="round"/>
</svg>
