<svg width="93" height="94" viewBox="0 0 93 94" fill="none" xmlns="http://www.w3.org/2000/svg">
<g clip-path="url(#clip0_737_4165)">
<path d="M42.6462 66.1565C51.1639 66.1565 58.0628 59.2189 58.0628 50.7012C58.0628 42.1835 51.1639 35.2461 42.6462 35.2461C34.1285 35.2461 27.2295 42.1835 27.2295 50.7012C27.2295 59.2189 34.1285 66.1565 42.6462 66.1565Z" stroke="#272657" stroke-width="5.78125" stroke-miterlimit="10" stroke-linecap="round"/>
<path d="M71.4752 39.6399C74.0189 46.269 74.2117 53.5535 72.0148 60.2983C69.8565 67.043 65.4242 72.8243 59.4888 76.6785C53.5534 80.5326 46.5002 82.267 39.4857 81.4962C32.4711 80.7639 25.919 77.6419 20.9086 72.6315C15.9367 67.6211 12.7763 61.0305 12.0054 54.0159C11.2731 46.9628 12.9304 39.8711 16.7846 33.9357C20.6002 28.0002 26.3816 23.5294 33.0878 21.3326C39.7941 19.1357 47.0783 19.2899 53.669 21.8336" stroke="#272657" stroke-width="5.78125" stroke-miterlimit="10" stroke-linecap="round"/>
<path d="M69.5094 23.7969L42.6846 50.7375" stroke="#3A65C8" stroke-width="5.78125" stroke-miterlimit="10" stroke-linecap="round"/>
<path d="M81.1875 23.875H69.625V12.3125" stroke="#3A65C8" stroke-width="5.78125" stroke-miterlimit="10" stroke-linecap="round"/>
</g>
<defs>
<clipPath id="clip0_737_4165">
<rect width="92.5" height="92.5" fill="white" transform="translate(0.25 0.75)"/>
</clipPath>
</defs>
</svg>
