<svg width="87" height="88" viewBox="0 0 87 88" fill="none" xmlns="http://www.w3.org/2000/svg">
<path d="M74.1356 41.4757V26.1221C74.1356 11.5973 70.7477 7.95703 57.1239 7.95703H29.8764C16.2527 7.95703 12.8647 11.5973 12.8647 26.1221V66.7049C12.8647 76.292 18.1269 78.5627 24.5062 71.7147L24.5422 71.6787C27.4976 68.543 32.0028 68.7953 34.5618 72.2193L38.202 77.0849" stroke="#272657" stroke-width="5.40625" stroke-linecap="round" stroke-linejoin="round"/>
<path d="M65.8459 77.8791C72.2156 77.8791 77.3791 72.7156 77.3791 66.3459C77.3791 59.9762 72.2156 54.8125 65.8459 54.8125C59.4762 54.8125 54.3125 59.9762 54.3125 66.3459C54.3125 72.7156 59.4762 77.8791 65.8459 77.8791Z" stroke="#3A65C8" stroke-width="5.40625" stroke-linecap="round" stroke-linejoin="round"/>
<path d="M79.5417 80.0417L75.9375 76.4375" stroke="#3A65C8" stroke-width="5.40625" stroke-linecap="round" stroke-linejoin="round"/>
<path d="M29.0835 25.9805H57.9168" stroke="#272657" stroke-width="5.40625" stroke-linecap="round" stroke-linejoin="round"/>
<path d="M32.6875 40.3945H54.3125" stroke="#272657" stroke-width="5.40625" stroke-linecap="round" stroke-linejoin="round"/>
</svg>
